<svg version="1.0" xmlns="http://www.w3.org/2000/svg"
 width="300.000000pt" height="300.000000pt" viewBox="0 0 300.000000 300.000000"
 preserveAspectRatio="xMidYMid meet" >
<g transform="translate(0.000000,300.000000) scale(0.100000,-0.100000)"
fill="#ffffff" stroke="none">
<path d="M1397 2489 c-234 -25 -428 -119 -598 -288 -273 -274 -357 -623 -243
-1019 l6 -22 690 0 691 0 -7 -43 c-13 -80 -76 -160 -156 -196 -30 -14 -107
-17 -555 -21 l-520 -5 100 -100 c215 -214 494 -314 790 -284 242 25 432 115
606 288 273 274 357 623 243 1019 l-6 22 -690 0 -691 0 7 43 c13 80 76 160
156 196 30 14 107 17 555 21 l519 5 -68 73 c-217 230 -522 344 -829 311z m298
-48 c189 -39 343 -120 483 -255 l53 -51 -493 -5 -493 -5 -54 -30 c-66 -37
-115 -92 -141 -162 -24 -65 -25 -81 -3 -105 15 -17 50 -18 689 -18 655 0 674
-1 684 -19 40 -76 53 -354 24 -496 -71 -345 -345 -632 -695 -727 -114 -31
-361 -33 -484 -4 -156 37 -341 143 -455 260 l-44 46 480 0 c539 0 537 0 618
71 75 67 122 199 84 237 -9 9 -176 12 -688 12 l-677 0 -11 39 c-24 78 -32 147
-33 275 -1 142 17 244 66 365 92 226 285 419 518 517 170 72 391 93 572 55z"/>
<path d="M1045 1640 c-47 -52 42 -215 150 -273 38 -21 53 -22 388 -25 256 -2
353 0 363 9 42 35 -5 170 -83 239 -76 66 -101 70 -473 70 -312 0 -328 -1 -345
-20z m728 -30 c84 -32 149 -110 163 -199 l7 -41 -331 0 c-306 0 -335 1 -385
20 -84 32 -149 110 -163 199 l-7 41 331 0 c306 0 335 -1 385 -20z"/>
</g>
</svg>
